<svg xmlns="http://www.w3.org/2000/svg" viewBox="0 0 282.82 348.6"><g id="Layer_2" data-name="Layer 2"><g id="Layer_1-2" data-name="Layer 1"><path d="M196.24,9.35C191,5.77,185.33,2.19,179.37,0L179,.71a5,5,0,0,1,3.48,2.39,5.07,5.07,0,0,1,4.78,3.72,35.26,35.26,0,0,1,16.87,17.51c-2.85-1.89-5.8-3.63-8.54-5.68-1.38-1-2.77-2-4.18-3a28.78,28.78,0,0,1,3.57,5.72q4.55,3.33,8.9,7c4.1,3.44,6.26,9.75,8.11,15.15,2.47,7.21,3.91,14.79,5.46,22.27.27,1.31-.64,3.84-1.69,4.33C204.55,75.24,193.21,80,182,85.05c-2.77,1.25-4.75,1-7.33-.62-3.41-2.13-6.89-4.11-10.41-6-4.74-.17-9.54-.73-13.39-3.39a38.34,38.34,0,0,1-7.33-2,5,5,0,0,1-2.47-2,4.42,4.42,0,0,1-1.71-.56l-.68,1.2a5.46,5.46,0,0,1,.55.43c.61.52,1.26,1,1.94,1.5l.19-.12.63.67.42.28a40.53,40.53,0,0,1,16,6.34c.83.23,1.66.44,2.46.64,4.83,1.22,9.65,3.48,10.76,8.19a5.07,5.07,0,0,1,1,2,36.69,36.69,0,0,1,1.1,7.6c.12.53.22,1.06.3,1.61.91,6.58-.22,13.75-1,20.29-.16,1.32-.35,2.63-.55,3.94.34,4.25,1.07,8.43,1.6,12.85.63,5.21.09,10.34-4,14.1-4.87,4.51-12.74,5.53-19.07,6-6.69.47-13.35,0-19.74,2.45-4.37,1.65-8.63,3.82-13.27,4.61a13.63,13.63,0,0,1-10.71-2.39h-.08l0-.05a12.87,12.87,0,0,1-3.16-3.49l-.67.84c.16-.44.3-.85.43-1.24a14.39,14.39,0,0,1-.7-1.42,25.82,25.82,0,0,1-4.88-5.56,33.4,33.4,0,0,1-2.11-3.57,4.44,4.44,0,0,1-1,.53l-2,3.59q3.47,5.84,6.58,11.9c2,4,1.3,7.67-.77,11.4Q86,198.78,73.22,222c-1.52,2.74-2.8,5.61-3.85,7.74-3.2-.25-5.7-1-8-.54-1.08.2-2.15.42-3.23.63A54.35,54.35,0,0,1,59.88,236l1.06.37c2.25-.52,4-.38,5.53,1.93,5,2,8.22,5.56,12,9.43C83.67,253.11,92,259,95,266.39a32.25,32.25,0,0,1,5.23,5.68,13.73,13.73,0,0,1,1.2,2.13,24.66,24.66,0,0,1,5,5.85c.86,1.57-.83,4.74-1.91,6.94,0,.24,0,.47.05.71a4,4,0,0,1-2.44,4.19c-.07.6-1.06,2-1.53,2a6.6,6.6,0,0,1-.75-.08c-1.75,5.61-3.31,11.15-8.62,15-.55.4-1.12.77-1.7,1.12a7.13,7.13,0,0,1-1.48,2.52,22.17,22.17,0,0,1-1.92,4.37,5,5,0,0,1-7.89.79,7.9,7.9,0,0,0-3.2-1.86l-.15.23c-.5-.25-1-.48-1.55-.7-3.27-.73-7.13-.76-9.74-1.24-5.36-1-9.74-3.1-14.5-5.68-.28-.16-.57-.31-.86-.46A49,49,0,0,1,36.45,307c.92.47,1.85.93,2.79,1.36,13,6,26.38,11.18,40.9,12.48a11,11,0,0,1,5.91,2.4c4.09,3.53,8.06,7.19,11.87,11.13a5.33,5.33,0,0,1,4.56,5l1,1.18-1-.46a4.53,4.53,0,0,1-2.57,3.75,4.9,4.9,0,0,1-2.6.61,5,5,0,0,1-3.25.25c-8.48-2-17.28-2.17-25.73-4.42S51.65,334.32,43,332.17a82.48,82.48,0,0,1-11.11-3.32c-3.38-1.38-6.39-3.4-9.64-5A4.63,4.63,0,0,1,17.79,322c-5-1.89-10-3.42-14.16-6.84a4.3,4.3,0,0,1-2.53-.42L0,316.68a245.22,245.22,0,0,0,24.19,12.88C48.69,341,74,350.27,101.58,348.34c40.65-2.83,79.19-12.74,112.12-38.55,11.66-9.16,23.88-17.74,32.32-30.23,6.06-9,11.69-18.22,17.4-27.41,10.36-16.7,17-34.61,17.48-54.51.12-5.16.77-10.3,1.25-15.44,3-32.55-4.34-62.84-19.13-90.4C244.75,60.06,226.53,29.75,196.24,9.35Zm53.59,69.87.78,13.27-1.52.11c-.37-4.4-.76-8.81-1.14-13.22ZM254.9,87c.31,4,.6,8,.91,12l-2.22.23q-.51-6-1-12Zm-12.2-2.34-1.73,0c0-5.12,0-10.26.06-15.39l1.42,0Q242.57,77,242.7,84.68ZM238,61.75q.57,9.61,1.13,19.24l-2,.14c-2.79-6.3-.26-12.86-.67-19.27Zm-3.93,14.68c-3.71-2-4.62-13.59-1.7-22.09C236.37,61.37,233.66,68.81,234.09,76.43Zm-12.24-33.9,2.11-.09.48,20.07-1.93.08Q222.2,52.55,221.85,42.53Zm4.49,6,1.92-.06c.22,7.75.45,15.52.67,23.27l-2.4.07Q226.43,60.17,226.34,48.53Zm-51,99.93c1-14.79,2.21-29.55,3.29-44.33a30.51,30.51,0,0,0,0-7.46c-.88-5.1.55-8.54,6.42-8.78,8.22-4.34,16.43-8.72,24.68-13,5.46-2.83,10-1.48,14.47,2.65,12.17,11.11,24.47,22,34.11,35.59,3,4.24,4.06,8.64,4.65,13.81,2.22,19.45-2.51,38.08-5.45,56.95-1,6.2-4,10.46-10.07,12.38-8.87,2.81-17.75,5.59-26.6,8.45-3.81,1.23-6.08,0-8.1-3.53-9.17-16-20.12-30.59-34.59-42.23C174.37,155.94,175.09,152.13,175.34,148.46ZM75,238.11c-1.7-1.78-2.45-5.38-2.13-7.93.4-3.17,2.14-6.28,3.72-9.18C83.61,208,91,195.12,97.9,182c3.77-7.12,8.69-11.45,16.91-13.82,17.76-5.09,35.89-7,54.09-8.77,2.76-.27,6.16,1.33,8.56,3,14,10,22.93,24.34,33.62,40.47,4.67,4.18,1.23,10.43-1.05,17-6,17.11-13.49,33.37-25.18,47.32a22.17,22.17,0,0,1-9.63,6.39C159,279.05,142.16,281,125.08,281c-5.2,0-9.46-.43-13.75-5.34C99.87,262.56,87,250.74,75,238.11ZM197.05,262q-.9,9.18-1.77,18.35h-2c-2.26-6.47,1.1-12.36,2.09-18.5Zm5.59,45.84a50,50,0,0,1-3.92,3.18,4.08,4.08,0,0,1-2.58,5.07c-3.15,1.31-6.35,2.45-9.59,3.46-5.56,4.75-14.26,7.07-20.49,9.44-12.31,4.69-24.9,9-37.95,10.4a41.22,41.22,0,0,1-13,2.53,4.79,4.79,0,0,1-.67,0c-3,1.56-5.71-.16-6.76-2.58-5.73-5.17-11.37-10.45-17.13-15.58-2.41-2.14-2.09-4-.42-6.44,7.09-10.48,13.92-21.13,21-31.57a5.8,5.8,0,0,1,4.43-2.05c19.47,1.42,38.61-.2,57.28-6.07,6.29-2,11.33-.65,15.64,4.39,4.77,5.55,9.72,11,14.69,16.34C206.43,301.81,205.88,305,202.64,307.85ZM197,283.69q1.49-15,3-30l2.2.22q-1.57,15-3.17,30Zm5.29,5.84c-.5-1.61-1.53-3.27-1.38-4.82,1.24-12.57,2.65-25.13,4.14-37.68.22-1.83,1.18-3.58,1.79-5.37l1.62.3c1.12,16-3.41,31.46-4.47,47.25Zm10.78,9.06c-6.56-3.76-7.88-6.72-7.11-13.79,1.75-16.19,3-32.45,5.1-48.6.8-6.16,3.27-12.12,5-18.15l1.6.38c-.27,24.38-5.3,48.28-7.38,72.6a51.82,51.82,0,0,0,1.26-5.42q4.36-34.68,8.64-69.37c.13-1-.17-2.22.32-2.93a15.83,15.83,0,0,1,3.08-2.71c.69,1.08,2,2.17,2,3.26a91.68,91.68,0,0,1-.56,14.46c-3.4,22.2-7.06,44.37-10.69,66.53A25.13,25.13,0,0,1,213.08,298.59Zm4.81-1.83-1.52-.5a11.23,11.23,0,0,1,.06-2.6,370.32,370.32,0,0,0,11.65-77.91c.11-2.64-.77-6.09,3.9-7.84a42.45,42.45,0,0,1,0,5.76c-3.6,25.38-7.19,50.74-11,76.07C220.63,292.19,219,294.44,217.89,296.76Zm7.23-6.42-1.85-.77a23.54,23.54,0,0,1,.14-2.37q5.68-38,11.39-76c.41-2.77.38-5.84,5-5.82a33.9,33.9,0,0,1,0,4.95c-3.72,24.36-7.43,48.71-11.37,73C228,285.76,226.25,288,225.12,290.34Zm6.36-6.57c4.3-28.1,8.36-54.63,12.43-81.18l1.42,0a17.51,17.51,0,0,1,.69,4.35c-.72,8.94-1,18-2.58,26.78-2.69,15.07-6.19,30-9.45,44.94C233.69,280,232.73,281.26,231.48,283.77Zm7.27-6.58-1.55-.47a12.57,12.57,0,0,1,0-3c5.37-23.18,10.73-46.36,11.78-70.28.06-1.45,2-2.81,3.1-4.22l2,1.11c-.34,4.11-.35,8.26-1.06,12.3-3.26,18.51-6.57,37-10.17,55.46C242.16,271.26,240.13,274.16,238.75,277.19Zm6.91-10.36c3.69-21,7.35-41.81,11.09-63C261.1,212.35,252.42,261,245.66,266.83ZM260,242.65c1.7-7.49,3.14-13.85,4.64-20.43C268,226.14,266.59,232.25,260,242.65Zm-6.71,13.61q4.22-22.09,8.42-44.2C262.55,227.46,258.53,242,253.25,256.26ZM272.08,129.7c5.47,27.84,7.2,55.73-.51,83.53a13.47,13.47,0,0,1-1.47,2.12c-3.75-7.11-7.4-13.41-10.37-20-1-2.2-.69-5.24-.29-7.79,2-12.65,4.52-25.23,6.15-37.92.81-6.37.06-12.94,0-19.41,0-1.88.08-3.77.12-5.66l1.72-.88C269.06,125.69,271.64,127.48,272.08,129.7Z"/><path d="M256.13,166.16c-.26-16.18-.53-33.08-.8-50C257.91,133.13,259.85,150.07,256.13,166.16Z"/><path d="M252.15,142.5l-2.5-22.69C253,123.39,254.23,135.21,252.15,142.5Z"/></g></g></svg>